<svg width="840" height="280" viewBox="0 0 840 280" fill="none" xmlns="http://www.w3.org/2000/svg">
<path d="M54.9266 23.2082L72.9257 5.37365C74.645 3.66999 76.6862 2.31858 78.9327 1.39656C81.1791 0.47455 83.5869 0 86.0184 0C88.45 0 90.8577 0.474552 93.1042 1.39657C95.3507 2.31858 97.3919 3.67 99.1112 5.37366L117.11 23.2082C118.83 24.9119 120.194 26.9344 121.124 29.1604C122.055 31.3863 122.533 33.7721 122.533 36.1814C122.533 38.5907 122.055 40.9765 121.124 43.2024C120.194 45.4283 118.83 47.4509 117.11 49.1545L86.0043 79.9763L54.8983 49.1545C53.1808 47.449 51.8192 45.425 50.8911 43.1981C49.963 40.9712 49.4866 38.5849 49.4893 36.1756C49.4919 33.7662 49.9734 31.381 50.9064 29.1561C51.8393 26.9311 53.2054 24.9101 54.9266 23.2082Z" fill="#0A519E"/>
<path d="M74.2994 39.6162C74.8477 40.0134 75.2551 40.5723 75.4634 41.2128C75.6717 41.8534 75.6702 42.5428 75.4591 43.1825L73.1596 50.1765C72.9482 50.8179 72.9475 51.5092 73.1576 52.151C73.3677 52.7928 73.7778 53.352 74.3289 53.7484C74.8799 54.1447 75.5437 54.3577 76.2246 54.3567C76.9056 54.3557 77.5686 54.1408 78.1186 53.7428L84.1172 49.4236C84.6668 49.0289 85.3281 48.8163 86.0068 48.8163C86.6856 48.8163 87.3469 49.0289 87.8964 49.4236L93.8951 53.7428C94.445 54.1408 95.1081 54.3557 95.7891 54.3567C96.47 54.3577 97.1337 54.1447 97.6848 53.7484C98.2359 53.352 98.646 52.7928 98.8561 52.151C99.0661 51.5092 99.0654 50.8179 98.854 50.1765L96.5545 43.1825C96.3424 42.541 96.3424 41.8492 96.5546 41.2078C96.7667 40.5663 97.1801 40.0087 97.7343 39.6162L103.733 35.3168C104.28 34.9208 104.687 34.3639 104.896 33.7254C105.105 33.0869 105.106 32.3993 104.897 31.7605C104.689 31.1217 104.283 30.5643 103.736 30.1677C103.19 29.771 102.531 29.5553 101.853 29.5512H94.415C93.7337 29.5497 93.0704 29.334 92.5207 28.9353C91.9709 28.5365 91.563 27.9752 91.3557 27.3321L89.0762 20.358C88.8595 19.7216 88.4468 19.1685 87.8961 18.7768C87.3455 18.385 86.6847 18.1743 86.0068 18.1743C85.329 18.1743 84.6682 18.385 84.1176 18.7768C83.5669 19.1685 83.1542 19.7216 82.9375 20.358L80.658 27.3321C80.4506 27.9752 80.0427 28.5365 79.493 28.9353C78.9432 29.334 78.28 29.5497 77.5987 29.5512H70.1803C69.5028 29.5553 68.8439 29.771 68.2974 30.1677C67.7509 30.5643 67.3446 31.1217 67.1363 31.7605C66.9281 32.3993 66.9285 33.0869 67.1376 33.7254C67.3466 34.3639 67.7537 34.9208 68.3007 35.3168L74.2994 39.6162Z" fill="white"/>
<path d="M80.7138 85.2014L49.6078 116.023C46.1354 119.464 41.4258 121.397 36.515 121.397C31.6043 121.397 26.8947 119.464 23.4222 116.023L5.4232 98.1886C3.70383 96.4849 2.33996 94.4624 1.40944 92.2364C0.478926 90.0105 0 87.6248 0 85.2154C0 82.8061 0.478931 80.4203 1.40945 78.1944C2.33996 75.9685 3.70384 73.9459 5.42321 72.2423L23.4364 54.3937C25.1558 52.69 27.1969 51.3386 29.4434 50.4166C31.6899 49.4946 34.0976 49.02 36.5292 49.02C38.9607 49.02 41.3685 49.4946 43.6149 50.4166C45.8614 51.3386 47.9026 52.69 49.6219 54.3937L80.7279 85.2154L80.7138 85.2014Z" fill="#29ABE2"/>
<path d="M36.6664 83.3848H36.6464C34.1064 83.3848 32.0474 85.425 32.0474 87.9417V100.008C32.0474 102.525 34.1064 104.565 36.6464 104.565H36.6664C39.2063 104.565 41.2654 102.525 41.2654 100.008V87.9417C41.2654 85.425 39.2063 83.3848 36.6664 83.3848Z" fill="white"/>
<path d="M36.6445 77.3984C39.8029 77.3984 42.3633 74.8615 42.3633 71.7319C42.3633 68.6024 39.8029 66.0654 36.6445 66.0654C33.4862 66.0654 30.9258 68.6024 30.9258 71.7319C30.9258 74.8615 33.4862 77.3984 36.6445 77.3984Z" fill="white"/>
<path d="M91.2842 85.1927L122.39 54.371C125.863 50.9303 130.572 48.9973 135.483 48.9973C140.394 48.9973 145.103 50.9303 148.576 54.371L166.575 72.2056C168.294 73.9092 169.658 75.9318 170.588 78.1577C171.519 80.3836 171.998 82.7694 171.998 85.1787C171.998 87.5881 171.519 89.9738 170.588 92.1997C169.658 94.4257 168.294 96.4482 166.575 98.1519L148.562 116C146.842 117.704 144.801 119.056 142.555 119.978C140.308 120.9 137.9 121.374 135.469 121.374C133.037 121.374 130.629 120.9 128.383 119.978C126.137 119.056 124.095 117.704 122.376 116L91.27 85.1787L91.2842 85.1927Z" fill="#103063"/>
<path d="M137.305 68.8218H122.608C120.786 68.8218 119.309 70.2854 119.309 72.0909V72.1107C119.309 73.9162 120.786 75.3799 122.608 75.3799H137.305C139.127 75.3799 140.604 73.9162 140.604 72.1107V72.0909C140.604 70.2854 139.127 68.8218 137.305 68.8218Z" fill="white"/>
<path d="M148.322 81.9177H122.608C120.786 81.9177 119.309 83.3814 119.309 85.1869V85.2067C119.309 87.0122 120.786 88.4758 122.608 88.4758H148.322C150.144 88.4758 151.622 87.0122 151.622 85.2067V85.1869C151.622 83.3814 150.144 81.9177 148.322 81.9177Z" fill="white"/>
<path d="M148.322 95.0117H122.608C120.786 95.0117 119.309 96.4754 119.309 98.2809V98.3007C119.309 100.106 120.786 101.57 122.608 101.57H148.322C150.144 101.57 151.622 100.106 151.622 98.3007V98.2809C151.622 96.4754 150.144 95.0117 148.322 95.0117Z" fill="white"/>
<path d="M117.107 120.993L85.9936 90.1643L54.9003 120.993C51.435 124.439 49.4893 129.106 49.4893 133.971C49.4893 138.836 51.435 143.502 54.9003 146.948L70.8969 162.799L71.3568 141.004L68.4374 139.261C67.6806 138.84 67.0537 138.223 66.6239 137.476C66.1941 136.729 65.9777 135.88 65.9979 135.021L66.6178 118.616C66.6381 118.223 66.8086 117.853 67.0947 117.581C67.3807 117.308 67.7608 117.154 68.1575 117.15C68.357 117.144 68.5557 117.178 68.7421 117.249C68.9285 117.32 69.099 117.426 69.2439 117.562C69.3887 117.699 69.5051 117.862 69.5863 118.042C69.6675 118.223 69.7119 118.418 69.7171 118.616L70.137 128.819C70.1388 129.124 70.2508 129.417 70.4527 129.646C70.6546 129.875 70.9329 130.025 71.2368 130.068H71.3368C71.6642 130.073 71.9809 129.952 72.2198 129.73C72.4586 129.508 72.6009 129.203 72.6165 128.879L73.0164 118.675C73.0273 118.327 73.1521 117.992 73.3722 117.72C73.5922 117.449 73.8954 117.255 74.2361 117.169C74.4423 117.149 74.6499 117.149 74.856 117.169C75.2004 117.251 75.5081 117.443 75.732 117.715C75.9559 117.987 76.0837 118.324 76.0957 118.675L76.4956 128.879C76.5309 129.202 76.6938 129.498 76.9485 129.702C77.2033 129.906 77.5294 130.002 77.8554 129.969C78.1593 129.926 78.4376 129.776 78.6394 129.547C78.8413 129.318 78.9534 129.024 78.9551 128.72L79.355 118.517C79.3705 118.122 79.5396 117.749 79.8267 117.476C80.1137 117.203 80.4965 117.05 80.8947 117.05C81.2909 117.05 81.6715 117.204 81.9554 117.477C82.2392 117.751 82.4039 118.124 82.4144 118.517L82.9942 134.882C83.0249 135.727 82.8258 136.565 82.4177 137.307C82.0097 138.049 81.4077 138.669 80.6747 139.102L77.8154 140.806L78.3952 168.366C80.7951 169.443 83.3992 170 86.0336 170C88.668 170 91.2721 169.443 93.6719 168.366L94.2318 140.945L93.5319 140.509C92.0849 139.654 90.8968 138.429 90.0927 136.963C89.3442 135.587 88.9525 134.048 88.953 132.485C88.953 127.294 89.9327 117.11 97.4511 117.15C104.969 117.189 105.989 127.393 105.989 132.485C106.001 134.108 105.585 135.706 104.782 137.12C103.979 138.535 102.817 139.716 101.41 140.549L100.71 140.965L101.17 162.759L117.167 146.909C120.612 143.456 122.539 138.794 122.528 133.939C122.517 129.084 120.568 124.43 117.107 120.993V120.993Z" fill="#8CC63F"/>
<path d="M222.008 37.3727V75.2433H269.866V94.9163H222.008V149.745H200.009V17.6997H277.146V37.3727H222.008Z" fill="#103063"/>
<path d="M287.148 106.634C287.148 81.6292 308.027 61.7988 334.306 61.7988C360.585 61.7988 381.484 81.6292 381.484 106.634C381.484 131.638 360.605 151.468 334.306 151.468C308.007 151.468 287.148 131.638 287.148 106.634ZM360.265 106.634C360.265 101.575 358.74 96.6307 355.884 92.4249C353.027 88.2192 348.966 84.9412 344.216 83.0055C339.465 81.0698 334.237 80.5633 329.194 81.5501C324.151 82.5369 319.518 84.9727 315.882 88.5494C312.246 92.1261 309.77 96.6831 308.767 101.644C307.764 106.605 308.279 111.747 310.246 116.421C312.214 121.094 315.547 125.088 319.822 127.898C324.098 130.709 329.124 132.208 334.266 132.208C337.688 132.235 341.081 131.591 344.247 130.315C347.413 129.039 350.29 127.156 352.71 124.776C355.129 122.396 357.043 119.566 358.34 116.452C359.638 113.337 360.292 109.999 360.265 106.634Z" fill="#103063"/>
<path d="M397.415 106.634C397.415 81.6292 418.274 61.7988 444.573 61.7988C470.872 61.7988 491.731 81.6292 491.731 106.634C491.731 131.638 470.872 151.468 444.573 151.468C418.274 151.468 397.415 131.638 397.415 106.634ZM470.512 106.634C470.512 101.575 468.987 96.6307 466.13 92.4249C463.273 88.2192 459.213 84.9412 454.462 83.0055C449.712 81.0698 444.484 80.5633 439.441 81.5501C434.397 82.5369 429.765 84.9727 426.129 88.5494C422.493 92.1261 420.017 96.6831 419.013 101.644C418.01 106.605 418.525 111.747 420.493 116.421C422.461 121.094 425.793 125.088 430.069 127.898C434.344 130.709 439.371 132.208 444.513 132.208C447.935 132.237 451.329 131.596 454.497 130.321C457.664 129.045 460.542 127.163 462.962 124.782C465.382 122.401 467.296 119.571 468.592 116.455C469.889 113.339 470.541 110 470.512 106.634Z" fill="#103063"/>
<path d="M600.767 17.6997V149.745H579.568V140.086C572.908 147.168 563.249 151.476 550.989 151.476C527.31 151.476 507.671 131.646 507.671 106.641C507.671 81.637 527.31 61.8066 550.989 61.8066C563.249 61.8066 572.988 66.115 579.568 73.1776V17.6997H600.767ZM580.768 106.641C580.768 101.583 579.243 96.6385 576.386 92.4327C573.529 88.227 569.469 84.949 564.718 83.0133C559.968 81.0776 554.74 80.5711 549.697 81.5579C544.653 82.5447 540.021 84.9805 536.385 88.5572C532.749 92.1339 530.273 96.6909 529.27 101.652C528.266 106.613 528.781 111.755 530.749 116.428C532.717 121.102 536.049 125.096 540.325 127.906C544.6 130.716 549.627 132.216 554.769 132.216C558.193 132.248 561.589 131.608 564.759 130.334C567.929 129.06 570.809 127.178 573.231 124.797C575.653 122.416 577.569 119.584 578.867 116.467C580.164 113.35 580.817 110.01 580.788 106.641H580.768Z" fill="#103063"/>
<path d="M657.986 17.6997H616.727V151.476H657.986C699.144 151.476 726.703 121.514 726.703 84.588C726.703 47.6617 699.044 17.6997 657.986 17.6997ZM657.066 130.78H639.386V38.317H656.966C684.724 38.317 703.204 58.1081 703.204 84.5093C703.204 110.91 684.724 130.78 656.966 130.78H657.066Z" fill="#103063"/>
<path d="M793.222 82.9748L838 17.6997H811.522L780.883 64.4231L750.424 17.6997H723.945L768.743 83.1518L721.965 151.476H748.604L780.883 101.526L813.341 151.476H840L793.222 82.9748Z" fill="#103063"/>
<path d="M720.865 232.141C720.737 235.562 719.235 238.803 716.676 241.18C714.117 243.557 710.7 244.885 707.145 244.885C703.589 244.885 700.172 243.557 697.613 241.18C695.054 238.803 693.552 235.562 693.424 232.141V205.697H686.577V232.141C686.735 237.293 688.971 242.183 692.811 245.773C696.651 249.363 701.792 251.372 707.145 251.372C712.497 251.372 717.638 249.363 721.478 245.773C725.318 242.183 727.554 237.293 727.712 232.141V205.697H720.865V232.141Z" fill="black" fill-opacity="0.4"/>
<path d="M583.669 186.055H576.768V251.959H583.669V186.055Z" fill="black" fill-opacity="0.4"/>
<path d="M480.576 205.695C475.531 205.689 470.661 207.478 466.901 210.718V186H460V251.938H466.901V224.475C467.157 221.057 468.783 217.868 471.435 215.584C474.088 213.299 477.559 212.097 481.115 212.231C484.671 212.365 488.033 213.826 490.491 216.304C492.949 218.782 494.311 222.084 494.288 225.511V251.938H501.135V225.511C501.13 220.26 498.963 215.225 495.109 211.51C491.255 207.795 486.029 205.704 480.576 205.695V205.695Z" fill="black" fill-opacity="0.4"/>
<path d="M764.001 225.556L762.37 225.28C756.993 224.382 750.128 223.26 749.985 218.53C749.952 217.851 750.067 217.173 750.323 216.54C750.579 215.906 750.971 215.332 751.473 214.854C753.516 212.852 757.567 211.661 762.316 211.661H762.657C767.577 211.317 772.439 212.855 776.189 215.941L776.942 216.563L781.136 212.351L780.366 211.661C775.493 207.549 769.166 205.399 762.693 205.654H762.352C755.81 205.654 750.164 207.38 746.884 210.625C745.786 211.67 744.923 212.923 744.349 214.304C743.775 215.685 743.504 217.165 743.55 218.651C743.658 228.283 753.91 229.888 762.155 231.183C770.4 232.478 776.243 233.703 776.1 238.657C775.831 245.147 766.815 245.855 762.962 245.855C756.222 245.855 750.308 243.283 747.135 238.951L746.454 238.036L741.561 242.127L742.134 242.955C746.06 248.634 753.839 252 762.926 252C767.478 252 782.337 251.068 782.642 239.071C783.09 228.559 772.049 226.816 764.001 225.556Z" fill="black" fill-opacity="0.4"/>
<path d="M617.881 205.697C612.425 205.701 607.194 207.79 603.337 211.506C599.479 215.221 597.309 220.258 597.305 225.512V251.939H604.116V225.512C604.244 222.091 605.746 218.85 608.305 216.473C610.864 214.096 614.281 212.768 617.836 212.768C621.392 212.768 624.809 214.096 627.368 216.473C629.927 218.85 631.428 222.091 631.557 225.512V251.939H638.404V225.512C638.399 220.267 636.237 215.237 632.391 211.524C628.545 207.81 623.328 205.715 617.881 205.697V205.697Z" fill="black" fill-opacity="0.4"/>
<path d="M652.267 205.697C647.804 205.693 643.461 207.093 639.9 209.684C641.301 211.479 642.458 213.44 643.341 215.518C645.826 213.438 649.01 212.297 652.303 212.308C655.941 212.308 659.43 213.698 662.005 216.174C664.579 218.65 666.027 222.009 666.032 225.512V251.939H672.879V225.512C672.877 222.908 672.342 220.329 671.305 217.924C670.267 215.519 668.748 213.333 666.834 211.493C664.92 209.653 662.649 208.194 660.149 207.2C657.65 206.205 654.971 205.694 652.267 205.697V205.697Z" fill="black" fill-opacity="0.4"/>
<path d="M538.983 212.308C542.375 212.308 545.691 213.276 548.512 215.092C551.333 216.907 553.532 219.487 554.83 222.505C556.128 225.523 556.468 228.845 555.806 232.049C555.144 235.254 553.51 238.197 551.112 240.507C548.713 242.817 545.656 244.391 542.329 245.028C539.002 245.665 535.553 245.338 532.419 244.088C529.284 242.838 526.605 240.721 524.721 238.004C522.836 235.287 521.83 232.094 521.83 228.827C521.835 224.447 523.643 220.248 526.859 217.151C530.075 214.054 534.435 212.312 538.983 212.308V212.308ZM538.983 205.697C534.232 205.697 529.589 207.053 525.639 209.595C521.69 212.136 518.611 215.749 516.793 219.975C514.976 224.202 514.5 228.852 515.427 233.339C516.353 237.826 518.641 241.947 522 245.182C525.359 248.417 529.638 250.62 534.297 251.512C538.956 252.405 543.785 251.947 548.174 250.196C552.562 248.445 556.313 245.481 558.953 241.677C561.592 237.873 563 233.401 563 228.827C563 222.692 560.47 216.809 555.966 212.471C551.461 208.133 545.353 205.697 538.983 205.697V205.697Z" fill="black" fill-opacity="0.4"/>
<path d="M803.18 225.515V186.055H796.243V251.941H803.18V232.16H810.098L830.746 251.941H839.995L812.267 225.515H803.18Z" fill="black" fill-opacity="0.4"/>
<path d="M840 205.66H830.5L816.287 218.33L820.822 222.317L840 205.66Z" fill="black" fill-opacity="0.4"/>
<path d="M356.57 207.172C348.952 207.172 342.769 210.426 338.825 215.438L338.825 186H333L333 252.017H338.825V244.631C342.769 249.643 348.952 252.896 356.57 252.896C368.848 252.896 379.244 242.696 379.244 230.034C379.244 217.372 368.848 207.172 356.57 207.172ZM355.943 247.181C346.264 247.181 338.467 239.531 338.467 230.034C338.467 220.538 346.264 212.888 355.943 212.888C365.532 212.888 373.418 220.538 373.418 230.034C373.418 239.531 365.532 247.181 355.943 247.181Z" fill="black" fill-opacity="0.4"/>
<path d="M421.368 208.052L406.85 245.334L391.883 208.052H385.431L403.624 252.369L394.751 274H401.025L408.911 254.655L428 208.052H421.368Z" fill="black" fill-opacity="0.4"/>
</svg>
