<svg width="140" height="47" viewBox="0 0 140 47" fill="none" xmlns="http://www.w3.org/2000/svg">
<path d="M9.15446 3.86804L12.1543 0.895608C12.4409 0.611665 12.7811 0.386429 13.1555 0.232761C13.5299 0.0790916 13.9312 0 14.3364 0C14.7417 0 15.143 0.079092 15.5174 0.232761C15.8918 0.38643 16.232 0.611667 16.5186 0.89561L19.5184 3.86804C19.805 4.15198 20.0323 4.48907 20.1874 4.86006C20.3424 5.23105 20.4223 5.62868 20.4223 6.03023C20.4223 6.43179 20.3424 6.82941 20.1874 7.2004C20.0323 7.57139 19.805 7.90848 19.5184 8.19242L14.3341 13.3294L9.14974 8.19242C8.86349 7.90817 8.63655 7.57084 8.48186 7.19969C8.32718 6.82853 8.24779 6.43082 8.24823 6.02926C8.24867 5.62771 8.32892 5.23017 8.48441 4.85935C8.6399 4.48852 8.86759 4.15168 9.15446 3.86804Z" fill="#0A519E"/>
<path d="M12.3832 6.6027C12.4746 6.6689 12.5425 6.76205 12.5772 6.86881C12.612 6.97557 12.6117 7.09047 12.5765 7.19708L12.1933 8.36275C12.158 8.46965 12.1579 8.58486 12.1929 8.69183C12.228 8.79879 12.2963 8.892 12.3882 8.95806C12.48 9.02411 12.5906 9.05961 12.7041 9.05944C12.8176 9.05928 12.9281 9.02346 13.0198 8.95714L14.0195 8.23727C14.1111 8.17148 14.2214 8.13605 14.3345 8.13605C14.4476 8.13605 14.5578 8.17148 14.6494 8.23727L15.6492 8.95714C15.7408 9.02346 15.8514 9.05928 15.9648 9.05944C16.0783 9.05961 16.189 9.02411 16.2808 8.95806C16.3727 8.892 16.441 8.79879 16.476 8.69183C16.511 8.58486 16.5109 8.46965 16.4757 8.36275L16.0924 7.19708C16.0571 7.09018 16.0571 6.97487 16.0924 6.86796C16.1278 6.76105 16.1967 6.66812 16.2891 6.6027L17.2888 5.88613C17.38 5.82013 17.4478 5.72731 17.4827 5.6209C17.5175 5.51448 17.5176 5.39988 17.4829 5.29342C17.4482 5.18695 17.3805 5.09406 17.2894 5.02794C17.1983 4.96183 17.0885 4.92588 16.9756 4.9252H15.7358C15.6223 4.92495 15.5117 4.889 15.4201 4.82254C15.3285 4.75609 15.2605 4.66253 15.226 4.55536L14.846 3.393C14.8099 3.28693 14.7411 3.19475 14.6494 3.12946C14.5576 3.06417 14.4475 3.02905 14.3345 3.02905C14.2215 3.02905 14.1114 3.06417 14.0196 3.12946C13.9278 3.19475 13.859 3.28693 13.8229 3.393L13.443 4.55536C13.4084 4.66253 13.3405 4.75609 13.2488 4.82254C13.1572 4.889 13.0467 4.92495 12.9331 4.9252H11.6967C11.5838 4.92588 11.474 4.96183 11.3829 5.02794C11.2918 5.09406 11.2241 5.18695 11.1894 5.29342C11.1547 5.39988 11.1548 5.51448 11.1896 5.6209C11.2244 5.72731 11.2923 5.82013 11.3835 5.88613L12.3832 6.6027Z" fill="white"/>
<path d="M13.4523 14.2003L8.26797 19.3372C7.68923 19.9107 6.90429 20.2328 6.08584 20.2328C5.26738 20.2328 4.48244 19.9107 3.90371 19.3372L0.903867 16.3648C0.617305 16.0809 0.389993 15.7438 0.234907 15.3728C0.0798209 15.0018 0 14.6042 0 14.2026C0 13.8011 0.0798218 13.4034 0.234908 13.0324C0.389994 12.6615 0.617307 12.3244 0.903868 12.0404L3.90606 9.06565C4.19263 8.78171 4.53282 8.55647 4.90723 8.4028C5.28164 8.24914 5.68293 8.17004 6.08819 8.17004C6.49345 8.17004 6.89474 8.24914 7.26915 8.4028C7.64356 8.55647 7.98376 8.78171 8.27032 9.06565L13.4546 14.2026L13.4523 14.2003Z" fill="#29ABE2"/>
<path d="M6.11105 13.8975H6.10772C5.68439 13.8975 5.34122 14.2375 5.34122 14.657V16.668C5.34122 17.0874 5.68439 17.4275 6.10772 17.4275H6.11105C6.53438 17.4275 6.87755 17.0874 6.87755 16.668V14.657C6.87755 14.2375 6.53438 13.8975 6.11105 13.8975Z" fill="white"/>
<path d="M6.10742 12.8997C6.63382 12.8997 7.06055 12.4769 7.06055 11.9553C7.06055 11.4337 6.63382 11.0109 6.10742 11.0109C5.58103 11.0109 5.1543 11.4337 5.1543 11.9553C5.1543 12.4769 5.58103 12.8997 6.10742 12.8997Z" fill="white"/>
<path d="M15.214 14.1988L20.3984 9.06187C20.9771 8.48842 21.762 8.16626 22.5805 8.16626C23.3989 8.16626 24.1839 8.48842 24.7626 9.06187L27.7625 12.0343C28.049 12.3182 28.2763 12.6553 28.4314 13.0263C28.5865 13.3973 28.6663 13.7949 28.6663 14.1965C28.6663 14.5981 28.5865 14.9957 28.4314 15.3667C28.2763 15.7377 28.049 16.0747 27.7625 16.3587L24.7603 19.3335C24.4737 19.6174 24.1335 19.8426 23.7591 19.9963C23.3847 20.15 22.9834 20.2291 22.5781 20.2291C22.1729 20.2291 21.7716 20.15 21.3972 19.9963C21.0228 19.8426 20.6826 19.6174 20.396 19.3335L15.2117 14.1965L15.214 14.1988Z" fill="#103063"/>
<path d="M22.8841 11.4702H20.4346C20.131 11.4702 19.8848 11.7142 19.8848 12.0151V12.0184C19.8848 12.3193 20.131 12.5632 20.4346 12.5632H22.8841C23.1878 12.5632 23.434 12.3193 23.434 12.0184V12.0151C23.434 11.7142 23.1878 11.4702 22.8841 11.4702Z" fill="white"/>
<path d="M24.7204 13.653H20.4346C20.131 13.653 19.8848 13.8969 19.8848 14.1978V14.2011C19.8848 14.502 20.131 14.746 20.4346 14.746H24.7204C25.0241 14.746 25.2703 14.502 25.2703 14.2011V14.1978C25.2703 13.8969 25.0241 13.653 24.7204 13.653Z" fill="white"/>
<path d="M24.7204 15.8353H20.4346C20.131 15.8353 19.8848 16.0793 19.8848 16.3802V16.3835C19.8848 16.6844 20.131 16.9283 20.4346 16.9283H24.7204C25.0241 16.9283 25.2703 16.6844 25.2703 16.3835V16.3802C25.2703 16.0793 25.0241 15.8353 24.7204 15.8353Z" fill="white"/>
<path d="M19.5178 20.1655L14.3323 15.0273L9.15004 20.1655C8.57249 20.7399 8.2482 21.5176 8.2482 22.3284C8.2482 23.1392 8.57249 23.917 9.15004 24.4913L11.8161 27.1331L11.8928 23.5007L11.4062 23.2101C11.2801 23.14 11.1756 23.0372 11.104 22.9127C11.0323 22.7882 10.9963 22.6467 10.9996 22.5034L11.103 19.7692C11.1063 19.7038 11.1348 19.6421 11.1824 19.5967C11.2301 19.5513 11.2935 19.5256 11.3596 19.5249C11.3928 19.524 11.4259 19.5296 11.457 19.5414C11.4881 19.5532 11.5165 19.571 11.5406 19.5937C11.5648 19.6164 11.5842 19.6436 11.5977 19.6737C11.6112 19.7038 11.6186 19.7363 11.6195 19.7692L11.6895 21.4699C11.6898 21.5206 11.7085 21.5695 11.7421 21.6076C11.7758 21.6458 11.8221 21.6708 11.8728 21.6779H11.8895C11.944 21.6788 11.9968 21.6586 12.0366 21.6217C12.0764 21.5847 12.1001 21.5338 12.1027 21.4798L12.1694 19.7792C12.1712 19.7211 12.192 19.6653 12.2287 19.62C12.2654 19.5747 12.3159 19.5425 12.3727 19.5282C12.407 19.5249 12.4416 19.5249 12.476 19.5282C12.5334 19.5419 12.5847 19.5738 12.622 19.6192C12.6593 19.6645 12.6806 19.7207 12.6826 19.7792L12.7493 21.4798C12.7551 21.5336 12.7823 21.5829 12.8248 21.6169C12.8672 21.6509 12.9216 21.6669 12.9759 21.6614C13.0265 21.6543 13.0729 21.6293 13.1066 21.5911C13.1402 21.5529 13.1589 21.504 13.1592 21.4533L13.2258 19.7527C13.2284 19.687 13.2566 19.6249 13.3044 19.5793C13.3523 19.5337 13.4161 19.5083 13.4824 19.5084C13.5485 19.5084 13.6119 19.5339 13.6592 19.5795C13.7065 19.6252 13.734 19.6873 13.7357 19.7527L13.8324 22.4803C13.8375 22.6211 13.8043 22.7607 13.7363 22.8845C13.6683 23.0082 13.5679 23.1115 13.4458 23.1837L12.9692 23.4677L13.0659 28.061C13.4658 28.2404 13.8999 28.3333 14.3389 28.3333C14.778 28.3333 15.212 28.2404 15.612 28.061L15.7053 23.4908L15.5887 23.4181C15.3475 23.2757 15.1495 23.0715 15.0154 22.827C14.8907 22.5977 14.8254 22.3413 14.8255 22.0808C14.8255 21.2156 14.9888 19.5183 16.2418 19.5249C17.4949 19.5315 17.6649 21.2321 17.6649 22.0808C17.6669 22.3512 17.5975 22.6176 17.4637 22.8533C17.3298 23.0891 17.1361 23.286 16.9017 23.4247L16.7851 23.4941L16.8617 27.1265L19.5278 24.4847C20.102 23.9093 20.4232 23.1323 20.4213 22.3231C20.4195 21.5139 20.0947 20.7383 19.5178 20.1655Z" fill="#8CC63F"/>
<path d="M37.0013 6.22879V12.5405H44.9777V15.8194H37.0013V24.9575H33.3348V2.94995H46.1909V6.22879H37.0013Z" fill="#103063"/>
<path d="M47.858 17.7723C47.858 13.6049 51.3379 10.2998 55.7177 10.2998C60.0975 10.2998 63.5807 13.6049 63.5807 17.7723C63.5807 21.9397 60.1009 25.2447 55.7177 25.2447C51.3346 25.2447 47.858 21.9397 47.858 17.7723ZM60.0442 17.7723C60.0442 16.9292 59.7901 16.1051 59.3139 15.4042C58.8378 14.7032 58.1611 14.1569 57.3693 13.8342C56.5775 13.5116 55.7062 13.4272 54.8657 13.5917C54.0251 13.7562 53.253 14.1621 52.647 14.7582C52.041 15.3544 51.6283 16.1139 51.4611 16.9407C51.294 17.7675 51.3798 18.6246 51.7077 19.4035C52.0357 20.1823 52.5911 20.848 53.3037 21.3164C54.0163 21.7848 54.854 22.0348 55.711 22.0348C56.2813 22.0391 56.8468 21.9318 57.3745 21.7192C57.9022 21.5065 58.3817 21.1927 58.7849 20.796C59.1882 20.3994 59.5072 19.9277 59.7234 19.4086C59.9396 18.8895 60.0486 18.3332 60.0442 17.7723Z" fill="#103063"/>
<path d="M66.2357 17.7723C66.2357 13.6049 69.7123 10.2998 74.0954 10.2998C78.4786 10.2998 81.9551 13.6049 81.9551 17.7723C81.9551 21.9397 78.4786 25.2447 74.0954 25.2447C69.7123 25.2447 66.2357 21.9397 66.2357 17.7723ZM78.4186 17.7723C78.4186 16.9292 78.1644 16.1051 77.6883 15.4042C77.2122 14.7032 76.5354 14.1569 75.7436 13.8342C74.9519 13.5116 74.0806 13.4272 73.2401 13.5917C72.3995 13.7562 71.6274 14.1621 71.0214 14.7582C70.4154 15.3544 70.0027 16.1139 69.8355 16.9407C69.6683 17.7675 69.7541 18.6246 70.0821 19.4035C70.4101 20.1823 70.9655 20.848 71.678 21.3164C72.3906 21.7848 73.2284 22.0348 74.0854 22.0348C74.6558 22.0396 75.2215 21.9326 75.7494 21.7201C76.2773 21.5076 76.757 21.1938 77.1603 20.797C77.5637 20.4003 77.8827 19.9284 78.0987 19.4091C78.3147 18.8898 78.4235 18.3334 78.4186 17.7723Z" fill="#103063"/>
<path d="M100.128 2.94995V24.9575H96.5946V23.3476C95.4847 24.528 93.8748 25.246 91.8315 25.246C87.885 25.246 84.6118 21.941 84.6118 17.7736C84.6118 13.6062 87.885 10.3011 91.8315 10.3011C93.8748 10.3011 95.498 11.0192 96.5946 12.1963V2.94995H100.128ZM96.7946 17.7736C96.7946 16.9305 96.5405 16.1064 96.0644 15.4055C95.5882 14.7045 94.9115 14.1582 94.1197 13.8355C93.3279 13.5129 92.4567 13.4285 91.6161 13.593C90.7756 13.7575 90.0035 14.1634 89.3975 14.7595C88.7915 15.3557 88.3788 16.1152 88.2116 16.942C88.0444 17.7688 88.1302 18.6259 88.4582 19.4047C88.7862 20.1836 89.3415 20.8493 90.0541 21.3177C90.7667 21.7861 91.6045 22.0361 92.4615 22.0361C93.0322 22.0413 93.5982 21.9347 94.1265 21.7223C94.6548 21.51 95.1348 21.1963 95.5386 20.7995C95.9423 20.4027 96.2615 19.9307 96.4778 19.4112C96.694 18.8917 96.8029 18.3349 96.798 17.7736H96.7946Z" fill="#103063"/>
<path d="M109.664 2.94995H102.788V25.246H109.664C116.524 25.246 121.117 20.2524 121.117 14.098C121.117 7.94362 116.507 2.94995 109.664 2.94995ZM109.511 21.7967H106.564V6.38617H109.494C114.121 6.38617 117.201 9.68468 117.201 14.0849C117.201 18.4851 114.121 21.7967 109.494 21.7967H109.511Z" fill="#103063"/>
<path d="M132.204 13.8291L139.667 2.94995H135.254L130.147 10.7372L125.071 2.94995H120.658L128.124 13.8586L120.328 25.246H124.767L130.147 16.9211L135.557 25.246H140L132.204 13.8291Z" fill="#103063"/>
<path d="M120.144 38.6901C120.123 39.2604 119.872 39.8004 119.446 40.1966C119.019 40.5928 118.45 40.8141 117.857 40.8141C117.265 40.8141 116.695 40.5928 116.269 40.1966C115.842 39.8004 115.592 39.2604 115.571 38.6901V34.2827H114.43V38.6901C114.456 39.5487 114.829 40.3637 115.469 40.9621C116.109 41.5605 116.965 41.8952 117.857 41.8952C118.749 41.8952 119.606 41.5605 120.246 40.9621C120.886 40.3637 121.259 39.5487 121.285 38.6901V34.2827H120.144V38.6901Z" fill="black" fill-opacity="0.4"/>
<path d="M97.2781 31.0093H96.1281V41.9932H97.2781V31.0093Z" fill="black" fill-opacity="0.4"/>
<path d="M80.0961 34.2825C79.2551 34.2815 78.4434 34.5796 77.8168 35.1197V31H76.6667V41.9896H77.8168V37.4125C77.8595 36.8428 78.1305 36.3114 78.5725 35.9306C79.0146 35.5498 79.5931 35.3494 80.1858 35.3718C80.7784 35.3942 81.3388 35.6377 81.7485 36.0507C82.1582 36.4637 82.3852 37.014 82.3813 37.5851V41.9896H83.5225V37.5851C83.5217 36.71 83.1605 35.8708 82.5182 35.2517C81.8759 34.6326 81.0048 34.284 80.0961 34.2825Z" fill="black" fill-opacity="0.4"/>
<path d="M127.334 37.5926L127.062 37.5466C126.166 37.397 125.021 37.21 124.998 36.4217C124.992 36.3086 125.011 36.1955 125.054 36.09C125.097 35.9844 125.162 35.8887 125.245 35.809C125.586 35.4753 126.261 35.2768 127.053 35.2768H127.11C127.929 35.2196 128.74 35.4759 129.365 35.9902L129.49 36.0938L130.189 35.3918L130.061 35.2768C129.249 34.5916 128.194 34.2331 127.115 34.2756H127.059C125.968 34.2756 125.027 34.5633 124.481 35.1041C124.298 35.2784 124.154 35.4871 124.058 35.7173C123.963 35.9474 123.917 36.1941 123.925 36.4419C123.943 38.0472 125.652 38.3147 127.026 38.5305C128.4 38.7463 129.374 38.9505 129.35 39.7762C129.305 40.8579 127.803 40.9758 127.16 40.9758C126.037 40.9758 125.051 40.5472 124.523 39.8251L124.409 39.6726L123.593 40.3544L123.689 40.4925C124.343 41.439 125.64 42 127.154 42C127.913 42 130.39 41.8446 130.44 39.8452C130.515 38.0932 128.675 37.8026 127.334 37.5926Z" fill="black" fill-opacity="0.4"/>
<path d="M102.98 34.2827C102.071 34.2835 101.199 34.6317 100.556 35.2509C99.9131 35.8701 99.5516 36.7097 99.5508 37.5854V41.9898H100.686V37.5854C100.707 37.0151 100.958 36.475 101.384 36.0788C101.811 35.6827 102.38 35.4613 102.973 35.4613C103.565 35.4613 104.135 35.6827 104.561 36.0788C104.988 36.475 105.238 37.0151 105.259 37.5854V41.9898H106.401V37.5854C106.4 36.7112 106.04 35.8729 105.398 35.2539C104.757 34.635 103.888 34.2858 102.98 34.2827Z" fill="black" fill-opacity="0.4"/>
<path d="M108.711 34.2827C107.967 34.2821 107.244 34.5154 106.65 34.9473C106.884 35.2465 107.076 35.5732 107.224 35.9197C107.638 35.5729 108.168 35.3827 108.717 35.3846C109.323 35.3846 109.905 35.6163 110.334 36.029C110.763 36.4416 111.005 37.0014 111.005 37.5854V41.9898H112.147V37.5854C112.146 37.1513 112.057 36.7215 111.884 36.3206C111.711 35.9197 111.458 35.5555 111.139 35.2488C110.82 34.9422 110.441 34.699 110.025 34.5332C109.608 34.3675 109.162 34.2823 108.711 34.2827Z" fill="black" fill-opacity="0.4"/>
<path d="M89.8304 35.3846C90.3959 35.3846 90.9486 35.546 91.4187 35.8485C91.8888 36.1511 92.2553 36.5811 92.4716 37.0841C92.688 37.5872 92.7446 38.1408 92.6343 38.6748C92.524 39.2089 92.2517 39.6995 91.8519 40.0845C91.4521 40.4695 90.9427 40.7317 90.3882 40.838C89.8336 40.9442 89.2588 40.8897 88.7364 40.6813C88.214 40.4729 87.7676 40.12 87.4534 39.6673C87.1393 39.2145 86.9716 38.6822 86.9716 38.1377C86.9724 37.4078 87.2739 36.7079 87.8098 36.1918C88.3458 35.6756 89.0725 35.3853 89.8304 35.3846ZM89.8304 34.2827C89.0387 34.2827 88.2648 34.5088 87.6065 34.9324C86.9483 35.356 86.4352 35.9581 86.1322 36.6625C85.8293 37.3669 85.75 38.142 85.9044 38.8898C86.0589 39.6376 86.4401 40.3245 86.9999 40.8636C87.5598 41.4027 88.273 41.7699 89.0495 41.9186C89.826 42.0674 90.6309 41.9911 91.3623 41.6993C92.0937 41.4075 92.7189 40.9134 93.1588 40.2794C93.5986 39.6455 93.8334 38.9002 93.8334 38.1377C93.8334 37.1153 93.4116 36.1348 92.6609 35.4118C91.9102 34.6889 90.8921 34.2827 89.8304 34.2827Z" fill="black" fill-opacity="0.4"/>
<path d="M133.863 37.5858V31.0093H132.707V41.9903H133.863V38.6934H135.016L138.458 41.9903H139.999L135.378 37.5858H133.863Z" fill="black" fill-opacity="0.4"/>
<path d="M140 34.2766H138.417L136.048 36.3882L136.804 37.0528L140 34.2766Z" fill="black" fill-opacity="0.4"/>
<path d="M59.4283 34.5287C58.1587 34.5287 57.1281 35.0709 56.4709 35.9063L56.4709 31H55.5L55.5 42.0029H56.4709V40.7718C57.1281 41.6072 58.1587 42.1494 59.4283 42.1494C61.4746 42.1494 63.2073 40.4494 63.2073 38.3391C63.2073 36.2287 61.4746 34.5287 59.4283 34.5287ZM59.3238 41.1968C57.7106 41.1968 56.4111 39.9218 56.4111 38.3391C56.4111 36.7563 57.7106 35.4813 59.3238 35.4813C60.922 35.4813 62.2364 36.7563 62.2364 38.3391C62.2364 39.9218 60.922 41.1968 59.3238 41.1968Z" fill="black" fill-opacity="0.4"/>
<path d="M70.228 34.6753L67.8083 40.8891L65.3139 34.6753H64.2385L67.2706 42.0615L65.7919 45.6667H66.8374L68.1519 42.4425L71.3333 34.6753H70.228Z" fill="black" fill-opacity="0.4"/>
</svg>
