<svg width="179" height="60" viewBox="0 0 179 60" fill="none" xmlns="http://www.w3.org/2000/svg">
<path d="M133.154 33.6553C133.118 34.626 132.702 35.5453 131.993 36.2196C131.284 36.8939 130.337 37.2707 129.352 37.2707C128.367 37.2707 127.421 36.8939 126.712 36.2196C126.003 35.5453 125.586 34.626 125.551 33.6553V26.1535H123.654V33.6553C123.698 35.1169 124.317 36.5041 125.381 37.5226C126.445 38.5412 127.869 39.1109 129.352 39.1109C130.835 39.1109 132.26 38.5412 133.324 37.5226C134.387 36.5041 135.007 35.1169 135.051 33.6553V26.1535H133.154V33.6553Z" fill="white"/>
<path d="M95.1454 20.581H93.2336V39.2769H95.1454V20.581Z" fill="white"/>
<path d="M66.5787 26.1539C65.1808 26.1521 63.8314 26.6596 62.7897 27.5788V20.5667H60.8777V39.2723H62.7897V31.4815C62.8606 30.5118 63.3112 29.6073 64.0461 28.9591C64.7809 28.3109 65.7426 27.9699 66.7278 28.008C67.7131 28.0462 68.6447 28.4605 69.3258 29.1635C70.0068 29.8666 70.3841 30.8031 70.3777 31.7753V39.2723H72.2747V31.7753C72.2734 30.2857 71.673 28.8573 70.6052 27.8035C69.5375 26.7497 68.0894 26.1565 66.5787 26.1539Z" fill="white"/>
<path d="M145.104 31.7896L144.652 31.7113C143.162 31.4567 141.26 31.1384 141.221 29.7967C141.211 29.604 141.243 29.4116 141.314 29.232C141.385 29.0523 141.494 28.8893 141.633 28.7537C142.199 28.1856 143.321 27.8478 144.637 27.8478H144.732C146.095 27.7504 147.442 28.1868 148.481 29.0622L148.689 29.2384L149.852 28.0436L149.638 27.8478C148.288 26.6815 146.535 26.0714 144.741 26.1437H144.647C142.835 26.1437 141.27 26.6334 140.361 27.554C140.057 27.8505 139.818 28.2058 139.659 28.5976C139.5 28.9893 139.425 29.4092 139.438 29.8309C139.468 32.5633 142.308 33.0187 144.593 33.386C146.877 33.7532 148.496 34.1009 148.456 35.5063C148.382 37.3475 145.884 37.5482 144.816 37.5482C142.949 37.5482 141.31 36.8186 140.431 35.5895L140.242 35.33L138.887 36.4905L139.045 36.7256C140.133 38.3366 142.288 39.2915 144.806 39.2915C146.067 39.2915 150.184 39.0271 150.269 35.6238C150.393 32.6417 147.334 32.1471 145.104 31.7896Z" fill="white"/>
<path d="M104.623 26.1535C103.112 26.1548 101.663 26.7475 100.594 27.8014C99.5248 28.8554 98.9238 30.2845 98.9225 31.775V39.2719H100.81V31.775C100.845 30.8043 101.261 29.885 101.97 29.2107C102.679 28.5364 103.626 28.1596 104.611 28.1596C105.596 28.1596 106.543 28.5364 107.252 29.2107C107.961 29.885 108.377 30.8043 108.412 31.775V39.2719H110.31V31.775C110.308 30.287 109.709 28.8601 108.644 27.8066C107.578 26.7531 106.132 26.1587 104.623 26.1535Z" fill="white"/>
<path d="M114.148 26.1535C112.911 26.1524 111.708 26.5496 110.721 27.2846C111.11 27.7939 111.43 28.3501 111.675 28.9397C112.363 28.3495 113.245 28.0258 114.158 28.0289C115.166 28.0289 116.133 28.4235 116.846 29.1258C117.559 29.8282 117.96 30.781 117.962 31.775V39.2719H119.859V31.775C119.858 31.0361 119.71 30.3046 119.422 29.6222C119.135 28.9398 118.714 28.32 118.184 27.798C117.654 27.276 117.024 26.8621 116.332 26.5799C115.639 26.2977 114.897 26.1528 114.148 26.1535Z" fill="white"/>
<path d="M82.7649 28.0289C83.7048 28.0289 84.6237 28.3038 85.4052 28.8187C86.1867 29.3336 86.7959 30.0655 87.1556 30.9218C87.5153 31.7781 87.6094 32.7204 87.426 33.6294C87.2426 34.5384 86.79 35.3734 86.1254 36.0288C85.4607 36.6842 84.6139 37.1305 83.692 37.3113C82.7701 37.4921 81.8146 37.3993 80.9462 37.0446C80.0778 36.6899 79.3356 36.0893 78.8134 35.3187C78.2912 34.548 78.0124 33.642 78.0124 32.7151C78.0137 31.4727 78.5149 30.2815 79.4058 29.4029C80.2968 28.5244 81.5049 28.0302 82.7649 28.0289ZM82.7649 26.1535C81.4488 26.1535 80.1622 26.5383 79.0679 27.2593C77.9736 27.9803 77.1207 29.0051 76.617 30.2041C76.1133 31.4031 75.9816 32.7224 76.2383 33.9953C76.4951 35.2681 77.1289 36.4373 78.0595 37.3549C78.9901 38.2726 80.1758 38.8975 81.4667 39.1507C82.7575 39.4039 84.0955 39.274 85.3114 38.7773C86.5274 38.2807 87.5666 37.4397 88.2978 36.3606C89.029 35.2816 89.4193 34.0129 89.4193 32.7151C89.4193 30.9749 88.7182 29.3059 87.4703 28.0754C86.2223 26.8448 84.5297 26.1535 82.7649 26.1535Z" fill="white"/>
<path d="M155.962 31.775V20.581H154.04V39.2719H155.962V33.6603H157.879L163.6 39.2719H166.162L158.48 31.775H155.962Z" fill="white"/>
<path d="M166.162 26.1437H163.53L159.592 29.7379L160.849 30.8691L166.162 26.1437Z" fill="white"/>
<path fill-rule="evenodd" clip-rule="evenodd" d="M13.3326 13.1181V46.8764H47.5682V13.1181H13.3326ZM30.9271 38.2385H29.3281V31.5397C29.3281 31.125 29.2452 30.7143 29.0843 30.3311C28.9233 29.9479 28.6874 29.5997 28.3899 29.3064C28.0925 29.0131 27.7394 28.7805 27.3508 28.6218C26.9622 28.463 26.5457 28.3813 26.125 28.3813C25.7044 28.3813 25.2879 28.463 24.8993 28.6218C24.5107 28.7805 24.1575 29.0131 23.8601 29.3064C23.5627 29.5997 23.3267 29.9479 23.1658 30.3311C23.0048 30.7143 22.922 31.125 22.922 31.5397V38.2385H21.3229V21.5455H22.9319V27.9994C23.8064 27.2176 24.9446 26.7847 26.125 26.785C27.4008 26.7889 28.623 27.2917 29.5233 28.1831C30.4236 29.0745 30.9285 30.2817 30.9271 31.5397V38.2385ZM39.5779 31.339V38.0377H37.9788V31.339C37.9829 30.6865 37.7815 30.0488 37.4025 29.5139C37.0236 28.979 36.4856 28.5731 35.8629 28.3523C35.2402 28.1315 34.5634 28.1067 33.9257 28.2811C33.2881 28.4556 32.721 28.8208 32.3027 29.3264C32.1458 28.901 31.9391 28.4951 31.6869 28.1169L31.5131 27.8574C32.3932 27.0429 33.5539 26.5879 34.7609 26.5842C34.8999 26.5842 35.039 26.5842 35.178 26.5842H35.2823L35.6895 26.6479H35.7739L36.1067 26.7311L36.206 26.7605C36.3301 26.7997 36.4493 26.8438 36.5685 26.8927L36.6827 26.9417C36.7771 26.9809 36.8714 27.0298 36.9658 27.0788L37.0651 27.1327C37.1678 27.1857 37.2673 27.2445 37.363 27.3089L37.4922 27.3922L37.7405 27.5783L37.8894 27.7007L38.0583 27.8525L38.1874 27.9798C38.2619 28.0533 38.3314 28.1365 38.4059 28.2148C38.4804 28.2932 38.4854 28.3177 38.5301 28.3666L38.6393 28.5135L38.7486 28.6702C39.2909 29.4573 39.58 30.3874 39.5779 31.339Z" fill="white"/>
</svg>
